<mxfile host="app.diagrams.net" modified="2023-11-14T14:47:35.197Z" agent="Mozilla/5.0 (Windows NT 10.0; Win64; x64) AppleWebKit/537.36 (KHTML, like Gecko) Chrome/112.0.0.0 Safari/537.36" etag="vjYrnLjh6tE5q35NOJ1a" version="22.1.0" type="device" pages="3">
  <diagram name="accept" id="2YBvvXClWsGukQMizWep">
    <mxGraphModel dx="1526" dy="506" grid="1" gridSize="10" guides="1" tooltips="1" connect="1" arrows="1" fold="1" page="1" pageScale="1" pageWidth="850" pageHeight="1100" math="0" shadow="0">
      <root>
        <mxCell id="0" />
        <mxCell id="1" parent="0" />
        <mxCell id="tcvXCYC0X6f6CXEf5K_X-1" value="" style="shape=umlFrame;whiteSpace=wrap;html=1;pointerEvents=0;width=60;height=30;" parent="1" vertex="1">
          <mxGeometry x="-90" y="230" width="1050" height="380" as="geometry" />
        </mxCell>
        <mxCell id="tcvXCYC0X6f6CXEf5K_X-3" value="" style="html=1;points=[[0,0,0,0,5],[0,1,0,0,-5],[1,0,0,0,5],[1,1,0,0,-5]];perimeter=orthogonalPerimeter;outlineConnect=0;targetShapes=umlLifeline;portConstraint=eastwest;newEdgeStyle={&quot;curved&quot;:0,&quot;rounded&quot;:0};" parent="1" vertex="1">
          <mxGeometry x="165" y="70" width="10" height="590" as="geometry" />
        </mxCell>
        <mxCell id="tcvXCYC0X6f6CXEf5K_X-5" value="" style="shape=umlLifeline;perimeter=lifelinePerimeter;whiteSpace=wrap;html=1;container=1;dropTarget=0;collapsible=0;recursiveResize=0;outlineConnect=0;portConstraint=eastwest;newEdgeStyle={&quot;curved&quot;:0,&quot;rounded&quot;:0};participant=umlActor;" parent="1" vertex="1">
          <mxGeometry x="10" y="10" width="20" height="710" as="geometry" />
        </mxCell>
        <mxCell id="tcvXCYC0X6f6CXEf5K_X-6" value="View" style="html=1;whiteSpace=wrap;" parent="1" vertex="1">
          <mxGeometry x="120" width="100" height="40" as="geometry" />
        </mxCell>
        <mxCell id="tcvXCYC0X6f6CXEf5K_X-7" value="AcceptProjectController" style="html=1;whiteSpace=wrap;" parent="1" vertex="1">
          <mxGeometry x="285" width="130" height="40" as="geometry" />
        </mxCell>
        <mxCell id="tcvXCYC0X6f6CXEf5K_X-8" value="AcceptProjectService" style="html=1;whiteSpace=wrap;" parent="1" vertex="1">
          <mxGeometry x="465" width="130" height="40" as="geometry" />
        </mxCell>
        <mxCell id="tcvXCYC0X6f6CXEf5K_X-9" value="AcceptProjectRepository" style="html=1;whiteSpace=wrap;" parent="1" vertex="1">
          <mxGeometry x="637.5" width="140" height="40" as="geometry" />
        </mxCell>
        <mxCell id="tcvXCYC0X6f6CXEf5K_X-10" value="Database" style="html=1;whiteSpace=wrap;" parent="1" vertex="1">
          <mxGeometry x="840" width="100" height="40" as="geometry" />
        </mxCell>
        <mxCell id="tcvXCYC0X6f6CXEf5K_X-11" value="" style="html=1;points=[[0,0,0,0,5],[0,1,0,0,-5],[1,0,0,0,5],[1,1,0,0,-5]];perimeter=orthogonalPerimeter;outlineConnect=0;targetShapes=umlLifeline;portConstraint=eastwest;newEdgeStyle={&quot;curved&quot;:0,&quot;rounded&quot;:0};" parent="1" vertex="1">
          <mxGeometry x="345" y="160" width="10" height="410" as="geometry" />
        </mxCell>
        <mxCell id="tcvXCYC0X6f6CXEf5K_X-12" value="" style="html=1;points=[[0,0,0,0,5],[0,1,0,0,-5],[1,0,0,0,5],[1,1,0,0,-5]];perimeter=orthogonalPerimeter;outlineConnect=0;targetShapes=umlLifeline;portConstraint=eastwest;newEdgeStyle={&quot;curved&quot;:0,&quot;rounded&quot;:0};" parent="1" vertex="1">
          <mxGeometry x="525" y="200" width="10" height="370" as="geometry" />
        </mxCell>
        <mxCell id="tcvXCYC0X6f6CXEf5K_X-13" value="" style="html=1;points=[[0,0,0,0,5],[0,1,0,0,-5],[1,0,0,0,5],[1,1,0,0,-5]];perimeter=orthogonalPerimeter;outlineConnect=0;targetShapes=umlLifeline;portConstraint=eastwest;newEdgeStyle={&quot;curved&quot;:0,&quot;rounded&quot;:0};" parent="1" vertex="1">
          <mxGeometry x="705" y="320" width="10" height="210" as="geometry" />
        </mxCell>
        <mxCell id="tcvXCYC0X6f6CXEf5K_X-14" value="" style="html=1;points=[[0,0,0,0,5],[0,1,0,0,-5],[1,0,0,0,5],[1,1,0,0,-5]];perimeter=orthogonalPerimeter;outlineConnect=0;targetShapes=umlLifeline;portConstraint=eastwest;newEdgeStyle={&quot;curved&quot;:0,&quot;rounded&quot;:0};" parent="1" vertex="1">
          <mxGeometry x="885" y="450" width="10" height="80" as="geometry" />
        </mxCell>
        <mxCell id="tcvXCYC0X6f6CXEf5K_X-15" value="" style="endArrow=none;dashed=1;html=1;dashPattern=1 3;strokeWidth=2;rounded=0;" parent="1" source="tcvXCYC0X6f6CXEf5K_X-3" edge="1">
          <mxGeometry width="50" height="50" relative="1" as="geometry">
            <mxPoint x="240" y="400" as="sourcePoint" />
            <mxPoint x="170" y="720" as="targetPoint" />
          </mxGeometry>
        </mxCell>
        <mxCell id="tcvXCYC0X6f6CXEf5K_X-19" value="" style="endArrow=none;dashed=1;html=1;rounded=0;" parent="1" edge="1">
          <mxGeometry width="50" height="50" relative="1" as="geometry">
            <mxPoint x="350" y="720" as="sourcePoint" />
            <mxPoint x="350" y="570" as="targetPoint" />
          </mxGeometry>
        </mxCell>
        <mxCell id="tcvXCYC0X6f6CXEf5K_X-20" value="" style="endArrow=none;dashed=1;html=1;rounded=0;" parent="1" edge="1">
          <mxGeometry width="50" height="50" relative="1" as="geometry">
            <mxPoint x="529.76" y="720" as="sourcePoint" />
            <mxPoint x="529.76" y="570" as="targetPoint" />
          </mxGeometry>
        </mxCell>
        <mxCell id="tcvXCYC0X6f6CXEf5K_X-21" value="" style="endArrow=none;dashed=1;html=1;rounded=0;" parent="1" edge="1">
          <mxGeometry width="50" height="50" relative="1" as="geometry">
            <mxPoint x="710" y="720" as="sourcePoint" />
            <mxPoint x="709.76" y="530" as="targetPoint" />
          </mxGeometry>
        </mxCell>
        <mxCell id="tcvXCYC0X6f6CXEf5K_X-22" value="" style="endArrow=none;dashed=1;html=1;rounded=0;" parent="1" edge="1">
          <mxGeometry width="50" height="50" relative="1" as="geometry">
            <mxPoint x="890" y="720" as="sourcePoint" />
            <mxPoint x="889.76" y="530" as="targetPoint" />
          </mxGeometry>
        </mxCell>
        <mxCell id="tcvXCYC0X6f6CXEf5K_X-23" value="" style="endArrow=none;dashed=1;html=1;rounded=0;entryX=0.5;entryY=1;entryDx=0;entryDy=0;" parent="1" target="tcvXCYC0X6f6CXEf5K_X-10" edge="1">
          <mxGeometry width="50" height="50" relative="1" as="geometry">
            <mxPoint x="889.47" y="450" as="sourcePoint" />
            <mxPoint x="889.23" y="260" as="targetPoint" />
          </mxGeometry>
        </mxCell>
        <mxCell id="tcvXCYC0X6f6CXEf5K_X-24" value="" style="endArrow=none;dashed=1;html=1;rounded=0;entryX=0.5;entryY=1;entryDx=0;entryDy=0;" parent="1" edge="1">
          <mxGeometry width="50" height="50" relative="1" as="geometry">
            <mxPoint x="710" y="320" as="sourcePoint" />
            <mxPoint x="709.76" y="40" as="targetPoint" />
          </mxGeometry>
        </mxCell>
        <mxCell id="tcvXCYC0X6f6CXEf5K_X-25" value="" style="endArrow=none;dashed=1;html=1;rounded=0;" parent="1" edge="1">
          <mxGeometry width="50" height="50" relative="1" as="geometry">
            <mxPoint x="530" y="200" as="sourcePoint" />
            <mxPoint x="530" y="40" as="targetPoint" />
          </mxGeometry>
        </mxCell>
        <mxCell id="tcvXCYC0X6f6CXEf5K_X-28" value="" style="endArrow=none;dashed=1;html=1;rounded=0;" parent="1" edge="1">
          <mxGeometry width="50" height="50" relative="1" as="geometry">
            <mxPoint x="350" y="160" as="sourcePoint" />
            <mxPoint x="349.57" y="40" as="targetPoint" />
          </mxGeometry>
        </mxCell>
        <mxCell id="tcvXCYC0X6f6CXEf5K_X-29" value="" style="endArrow=none;dashed=1;html=1;rounded=0;" parent="1" edge="1">
          <mxGeometry width="50" height="50" relative="1" as="geometry">
            <mxPoint x="170" y="70" as="sourcePoint" />
            <mxPoint x="169.57" y="40" as="targetPoint" />
          </mxGeometry>
        </mxCell>
        <mxCell id="tcvXCYC0X6f6CXEf5K_X-31" value="" style="endArrow=classic;html=1;rounded=0;" parent="1" edge="1">
          <mxGeometry width="50" height="50" relative="1" as="geometry">
            <mxPoint x="19.447368421052715" y="140" as="sourcePoint" />
            <mxPoint x="165" y="140" as="targetPoint" />
          </mxGeometry>
        </mxCell>
        <mxCell id="tcvXCYC0X6f6CXEf5K_X-32" value="" style="endArrow=classic;html=1;rounded=0;" parent="1" target="tcvXCYC0X6f6CXEf5K_X-11" edge="1">
          <mxGeometry width="50" height="50" relative="1" as="geometry">
            <mxPoint x="174.99736842105273" y="170" as="sourcePoint" />
            <mxPoint x="320.55" y="170" as="targetPoint" />
          </mxGeometry>
        </mxCell>
        <mxCell id="tcvXCYC0X6f6CXEf5K_X-33" value="" style="endArrow=classic;html=1;rounded=0;" parent="1" edge="1">
          <mxGeometry width="50" height="50" relative="1" as="geometry">
            <mxPoint x="354.9973684210527" y="210" as="sourcePoint" />
            <mxPoint x="525" y="210" as="targetPoint" />
          </mxGeometry>
        </mxCell>
        <mxCell id="tcvXCYC0X6f6CXEf5K_X-39" value="" style="endArrow=classic;html=1;rounded=0;" parent="1" edge="1">
          <mxGeometry width="50" height="50" relative="1" as="geometry">
            <mxPoint x="534.9973684210527" y="419.47" as="sourcePoint" />
            <mxPoint x="705" y="419.47" as="targetPoint" />
          </mxGeometry>
        </mxCell>
        <mxCell id="tcvXCYC0X6f6CXEf5K_X-40" value="" style="endArrow=classic;html=1;rounded=0;" parent="1" edge="1">
          <mxGeometry width="50" height="50" relative="1" as="geometry">
            <mxPoint x="714.9973684210527" y="460" as="sourcePoint" />
            <mxPoint x="885" y="460" as="targetPoint" />
          </mxGeometry>
        </mxCell>
        <mxCell id="tcvXCYC0X6f6CXEf5K_X-46" value="Teacher" style="text;html=1;strokeColor=none;fillColor=none;align=center;verticalAlign=middle;whiteSpace=wrap;rounded=0;" parent="1" vertex="1">
          <mxGeometry x="-10" y="50" width="60" height="30" as="geometry" />
        </mxCell>
        <mxCell id="tcvXCYC0X6f6CXEf5K_X-48" value="1. Click button &quot;Duyệt&quot;" style="text;html=1;strokeColor=none;fillColor=none;align=center;verticalAlign=middle;whiteSpace=wrap;rounded=0;" parent="1" vertex="1">
          <mxGeometry x="30" y="110" width="130" height="30" as="geometry" />
        </mxCell>
        <mxCell id="tcvXCYC0X6f6CXEf5K_X-49" value="2. acceptProject()" style="text;html=1;strokeColor=none;fillColor=none;align=center;verticalAlign=middle;whiteSpace=wrap;rounded=0;" parent="1" vertex="1">
          <mxGeometry x="200" y="140" width="130" height="30" as="geometry" />
        </mxCell>
        <mxCell id="tcvXCYC0X6f6CXEf5K_X-51" value="5. createStages()" style="text;html=1;strokeColor=none;fillColor=none;align=center;verticalAlign=middle;whiteSpace=wrap;rounded=0;" parent="1" vertex="1">
          <mxGeometry x="552.5" y="390" width="130" height="30" as="geometry" />
        </mxCell>
        <mxCell id="tcvXCYC0X6f6CXEf5K_X-52" value="6. executeUpdate()" style="text;html=1;strokeColor=none;fillColor=none;align=center;verticalAlign=middle;whiteSpace=wrap;rounded=0;" parent="1" vertex="1">
          <mxGeometry x="730" y="430" width="130" height="30" as="geometry" />
        </mxCell>
        <mxCell id="tcvXCYC0X6f6CXEf5K_X-59" value="" style="verticalLabelPosition=bottom;verticalAlign=top;html=1;shape=card;whiteSpace=wrap;size=20;arcSize=12;rotation=-180;" parent="1" vertex="1">
          <mxGeometry x="-90" y="230" width="100" height="30" as="geometry" />
        </mxCell>
        <mxCell id="tcvXCYC0X6f6CXEf5K_X-60" value="&lt;font style=&quot;font-size: 11px;&quot;&gt;alt accept project&lt;/font&gt;" style="text;html=1;strokeColor=none;fillColor=none;align=center;verticalAlign=middle;whiteSpace=wrap;rounded=0;" parent="1" vertex="1">
          <mxGeometry x="-97.5" y="230" width="115" height="30" as="geometry" />
        </mxCell>
        <mxCell id="mySs8uLfwJm7Ytv-Rjar-157" value="3. acceptProject()" style="text;html=1;strokeColor=none;fillColor=none;align=center;verticalAlign=middle;whiteSpace=wrap;rounded=0;" parent="1" vertex="1">
          <mxGeometry x="380" y="180" width="130" height="30" as="geometry" />
        </mxCell>
        <mxCell id="mySs8uLfwJm7Ytv-Rjar-158" value="4. accept()" style="text;html=1;strokeColor=none;fillColor=none;align=center;verticalAlign=middle;whiteSpace=wrap;rounded=0;" parent="1" vertex="1">
          <mxGeometry x="535" y="320" width="130" height="30" as="geometry" />
        </mxCell>
        <mxCell id="mySs8uLfwJm7Ytv-Rjar-159" value="" style="endArrow=classic;html=1;rounded=0;" parent="1" edge="1">
          <mxGeometry width="50" height="50" relative="1" as="geometry">
            <mxPoint x="537.4973684210527" y="350" as="sourcePoint" />
            <mxPoint x="707.5" y="350" as="targetPoint" />
          </mxGeometry>
        </mxCell>
        <mxCell id="mySs8uLfwJm7Ytv-Rjar-160" value="" style="html=1;verticalAlign=bottom;endArrow=open;dashed=1;endSize=8;curved=0;rounded=0;" parent="1" edge="1">
          <mxGeometry relative="1" as="geometry">
            <mxPoint x="885" y="510" as="sourcePoint" />
            <mxPoint x="715" y="510" as="targetPoint" />
          </mxGeometry>
        </mxCell>
        <mxCell id="mySs8uLfwJm7Ytv-Rjar-161" value="7. Return result" style="text;html=1;strokeColor=none;fillColor=none;align=center;verticalAlign=middle;whiteSpace=wrap;rounded=0;" parent="1" vertex="1">
          <mxGeometry x="720" y="480" width="130" height="30" as="geometry" />
        </mxCell>
        <mxCell id="mySs8uLfwJm7Ytv-Rjar-162" value="" style="html=1;verticalAlign=bottom;endArrow=open;dashed=1;endSize=8;curved=0;rounded=0;" parent="1" edge="1">
          <mxGeometry relative="1" as="geometry">
            <mxPoint x="702.5" y="520" as="sourcePoint" />
            <mxPoint x="532.5" y="520" as="targetPoint" />
          </mxGeometry>
        </mxCell>
        <mxCell id="mySs8uLfwJm7Ytv-Rjar-163" value="8. Return result" style="text;html=1;strokeColor=none;fillColor=none;align=center;verticalAlign=middle;whiteSpace=wrap;rounded=0;" parent="1" vertex="1">
          <mxGeometry x="552.5" y="490" width="130" height="30" as="geometry" />
        </mxCell>
        <mxCell id="mySs8uLfwJm7Ytv-Rjar-164" value="" style="html=1;verticalAlign=bottom;endArrow=open;dashed=1;endSize=8;curved=0;rounded=0;" parent="1" edge="1">
          <mxGeometry relative="1" as="geometry">
            <mxPoint x="525" y="549" as="sourcePoint" />
            <mxPoint x="355" y="549" as="targetPoint" />
          </mxGeometry>
        </mxCell>
        <mxCell id="mySs8uLfwJm7Ytv-Rjar-165" value="9. Return result" style="text;html=1;strokeColor=none;fillColor=none;align=center;verticalAlign=middle;whiteSpace=wrap;rounded=0;" parent="1" vertex="1">
          <mxGeometry x="367.5" y="520" width="130" height="30" as="geometry" />
        </mxCell>
        <mxCell id="mySs8uLfwJm7Ytv-Rjar-166" value="" style="html=1;verticalAlign=bottom;endArrow=open;dashed=1;endSize=8;curved=0;rounded=0;" parent="1" edge="1">
          <mxGeometry relative="1" as="geometry">
            <mxPoint x="345" y="568.75" as="sourcePoint" />
            <mxPoint x="175" y="568.75" as="targetPoint" />
          </mxGeometry>
        </mxCell>
        <mxCell id="mySs8uLfwJm7Ytv-Rjar-167" value="10. Return view" style="text;html=1;strokeColor=none;fillColor=none;align=center;verticalAlign=middle;whiteSpace=wrap;rounded=0;" parent="1" vertex="1">
          <mxGeometry x="192.5" y="530" width="130" height="30" as="geometry" />
        </mxCell>
        <mxCell id="mySs8uLfwJm7Ytv-Rjar-170" value="" style="html=1;verticalAlign=bottom;endArrow=open;dashed=1;endSize=8;curved=0;rounded=0;" parent="1" edge="1">
          <mxGeometry relative="1" as="geometry">
            <mxPoint x="165" y="590" as="sourcePoint" />
            <mxPoint x="20" y="590" as="targetPoint" />
          </mxGeometry>
        </mxCell>
        <mxCell id="mySs8uLfwJm7Ytv-Rjar-171" value="11. Return view" style="text;html=1;strokeColor=none;fillColor=none;align=center;verticalAlign=middle;whiteSpace=wrap;rounded=0;" parent="1" vertex="1">
          <mxGeometry x="30" y="550" width="130" height="30" as="geometry" />
        </mxCell>
      </root>
    </mxGraphModel>
  </diagram>
  <diagram id="l5bcdSw3xTcJfauoNzRs" name="getList">
    <mxGraphModel dx="1503" dy="1675" grid="1" gridSize="10" guides="1" tooltips="1" connect="1" arrows="1" fold="1" page="1" pageScale="1" pageWidth="827" pageHeight="1169" math="0" shadow="0">
      <root>
        <mxCell id="0" />
        <mxCell id="1" parent="0" />
        <mxCell id="pYfZoYJUQG9xa3Inid7K-1" value="" style="shape=umlFrame;whiteSpace=wrap;html=1;pointerEvents=0;width=60;height=30;" parent="1" vertex="1">
          <mxGeometry x="-90" y="-700" width="1050" height="380" as="geometry" />
        </mxCell>
        <mxCell id="pYfZoYJUQG9xa3Inid7K-2" value="" style="html=1;points=[[0,0,0,0,5],[0,1,0,0,-5],[1,0,0,0,5],[1,1,0,0,-5]];perimeter=orthogonalPerimeter;outlineConnect=0;targetShapes=umlLifeline;portConstraint=eastwest;newEdgeStyle={&quot;curved&quot;:0,&quot;rounded&quot;:0};" parent="1" vertex="1">
          <mxGeometry x="165" y="-860" width="10" height="590" as="geometry" />
        </mxCell>
        <mxCell id="pYfZoYJUQG9xa3Inid7K-3" value="" style="shape=umlLifeline;perimeter=lifelinePerimeter;whiteSpace=wrap;html=1;container=1;dropTarget=0;collapsible=0;recursiveResize=0;outlineConnect=0;portConstraint=eastwest;newEdgeStyle={&quot;curved&quot;:0,&quot;rounded&quot;:0};participant=umlActor;" parent="1" vertex="1">
          <mxGeometry x="10" y="-920" width="20" height="710" as="geometry" />
        </mxCell>
        <mxCell id="pYfZoYJUQG9xa3Inid7K-4" value="View" style="html=1;whiteSpace=wrap;" parent="1" vertex="1">
          <mxGeometry x="120" y="-930" width="100" height="40" as="geometry" />
        </mxCell>
        <mxCell id="pYfZoYJUQG9xa3Inid7K-5" value="AcceptProjectController" style="html=1;whiteSpace=wrap;" parent="1" vertex="1">
          <mxGeometry x="285" y="-930" width="130" height="40" as="geometry" />
        </mxCell>
        <mxCell id="pYfZoYJUQG9xa3Inid7K-6" value="AcceptProjectService" style="html=1;whiteSpace=wrap;" parent="1" vertex="1">
          <mxGeometry x="465" y="-930" width="130" height="40" as="geometry" />
        </mxCell>
        <mxCell id="pYfZoYJUQG9xa3Inid7K-7" value="AcceptProjectRepository" style="html=1;whiteSpace=wrap;" parent="1" vertex="1">
          <mxGeometry x="637.5" y="-930" width="140" height="40" as="geometry" />
        </mxCell>
        <mxCell id="pYfZoYJUQG9xa3Inid7K-8" value="Database" style="html=1;whiteSpace=wrap;" parent="1" vertex="1">
          <mxGeometry x="840" y="-930" width="100" height="40" as="geometry" />
        </mxCell>
        <mxCell id="pYfZoYJUQG9xa3Inid7K-9" value="" style="html=1;points=[[0,0,0,0,5],[0,1,0,0,-5],[1,0,0,0,5],[1,1,0,0,-5]];perimeter=orthogonalPerimeter;outlineConnect=0;targetShapes=umlLifeline;portConstraint=eastwest;newEdgeStyle={&quot;curved&quot;:0,&quot;rounded&quot;:0};" parent="1" vertex="1">
          <mxGeometry x="345" y="-770" width="10" height="410" as="geometry" />
        </mxCell>
        <mxCell id="pYfZoYJUQG9xa3Inid7K-10" value="" style="html=1;points=[[0,0,0,0,5],[0,1,0,0,-5],[1,0,0,0,5],[1,1,0,0,-5]];perimeter=orthogonalPerimeter;outlineConnect=0;targetShapes=umlLifeline;portConstraint=eastwest;newEdgeStyle={&quot;curved&quot;:0,&quot;rounded&quot;:0};" parent="1" vertex="1">
          <mxGeometry x="525" y="-730" width="10" height="370" as="geometry" />
        </mxCell>
        <mxCell id="pYfZoYJUQG9xa3Inid7K-11" value="" style="html=1;points=[[0,0,0,0,5],[0,1,0,0,-5],[1,0,0,0,5],[1,1,0,0,-5]];perimeter=orthogonalPerimeter;outlineConnect=0;targetShapes=umlLifeline;portConstraint=eastwest;newEdgeStyle={&quot;curved&quot;:0,&quot;rounded&quot;:0};" parent="1" vertex="1">
          <mxGeometry x="705" y="-710" width="10" height="310" as="geometry" />
        </mxCell>
        <mxCell id="pYfZoYJUQG9xa3Inid7K-12" value="" style="html=1;points=[[0,0,0,0,5],[0,1,0,0,-5],[1,0,0,0,5],[1,1,0,0,-5]];perimeter=orthogonalPerimeter;outlineConnect=0;targetShapes=umlLifeline;portConstraint=eastwest;newEdgeStyle={&quot;curved&quot;:0,&quot;rounded&quot;:0};" parent="1" vertex="1">
          <mxGeometry x="885" y="-680" width="10" height="280" as="geometry" />
        </mxCell>
        <mxCell id="pYfZoYJUQG9xa3Inid7K-13" value="" style="endArrow=none;dashed=1;html=1;dashPattern=1 3;strokeWidth=2;rounded=0;" parent="1" source="pYfZoYJUQG9xa3Inid7K-2" edge="1">
          <mxGeometry width="50" height="50" relative="1" as="geometry">
            <mxPoint x="240" y="-530" as="sourcePoint" />
            <mxPoint x="170" y="-210" as="targetPoint" />
          </mxGeometry>
        </mxCell>
        <mxCell id="pYfZoYJUQG9xa3Inid7K-14" value="" style="endArrow=none;dashed=1;html=1;rounded=0;" parent="1" edge="1">
          <mxGeometry width="50" height="50" relative="1" as="geometry">
            <mxPoint x="350" y="-210" as="sourcePoint" />
            <mxPoint x="350" y="-360" as="targetPoint" />
          </mxGeometry>
        </mxCell>
        <mxCell id="pYfZoYJUQG9xa3Inid7K-15" value="" style="endArrow=none;dashed=1;html=1;rounded=0;" parent="1" edge="1">
          <mxGeometry width="50" height="50" relative="1" as="geometry">
            <mxPoint x="529.76" y="-210" as="sourcePoint" />
            <mxPoint x="529.76" y="-360" as="targetPoint" />
          </mxGeometry>
        </mxCell>
        <mxCell id="pYfZoYJUQG9xa3Inid7K-16" value="" style="endArrow=none;dashed=1;html=1;rounded=0;" parent="1" edge="1">
          <mxGeometry width="50" height="50" relative="1" as="geometry">
            <mxPoint x="710" y="-210" as="sourcePoint" />
            <mxPoint x="709.76" y="-400" as="targetPoint" />
          </mxGeometry>
        </mxCell>
        <mxCell id="pYfZoYJUQG9xa3Inid7K-17" value="" style="endArrow=none;dashed=1;html=1;rounded=0;" parent="1" edge="1">
          <mxGeometry width="50" height="50" relative="1" as="geometry">
            <mxPoint x="890" y="-210" as="sourcePoint" />
            <mxPoint x="889.76" y="-400" as="targetPoint" />
          </mxGeometry>
        </mxCell>
        <mxCell id="pYfZoYJUQG9xa3Inid7K-18" value="" style="endArrow=none;dashed=1;html=1;rounded=0;entryX=0.5;entryY=1;entryDx=0;entryDy=0;" parent="1" target="pYfZoYJUQG9xa3Inid7K-8" edge="1">
          <mxGeometry width="50" height="50" relative="1" as="geometry">
            <mxPoint x="890" y="-680" as="sourcePoint" />
            <mxPoint x="889.23" y="-670" as="targetPoint" />
          </mxGeometry>
        </mxCell>
        <mxCell id="pYfZoYJUQG9xa3Inid7K-19" value="" style="endArrow=none;dashed=1;html=1;rounded=0;entryX=0.5;entryY=1;entryDx=0;entryDy=0;" parent="1" edge="1">
          <mxGeometry width="50" height="50" relative="1" as="geometry">
            <mxPoint x="710" y="-710" as="sourcePoint" />
            <mxPoint x="709.76" y="-890" as="targetPoint" />
          </mxGeometry>
        </mxCell>
        <mxCell id="pYfZoYJUQG9xa3Inid7K-20" value="" style="endArrow=none;dashed=1;html=1;rounded=0;" parent="1" edge="1">
          <mxGeometry width="50" height="50" relative="1" as="geometry">
            <mxPoint x="530" y="-730" as="sourcePoint" />
            <mxPoint x="530" y="-890" as="targetPoint" />
          </mxGeometry>
        </mxCell>
        <mxCell id="pYfZoYJUQG9xa3Inid7K-21" value="" style="endArrow=none;dashed=1;html=1;rounded=0;" parent="1" edge="1">
          <mxGeometry width="50" height="50" relative="1" as="geometry">
            <mxPoint x="350" y="-770" as="sourcePoint" />
            <mxPoint x="349.57" y="-890" as="targetPoint" />
          </mxGeometry>
        </mxCell>
        <mxCell id="pYfZoYJUQG9xa3Inid7K-22" value="" style="endArrow=none;dashed=1;html=1;rounded=0;" parent="1" edge="1">
          <mxGeometry width="50" height="50" relative="1" as="geometry">
            <mxPoint x="170" y="-860" as="sourcePoint" />
            <mxPoint x="169.57" y="-890" as="targetPoint" />
          </mxGeometry>
        </mxCell>
        <mxCell id="pYfZoYJUQG9xa3Inid7K-23" value="" style="endArrow=classic;html=1;rounded=0;" parent="1" edge="1">
          <mxGeometry width="50" height="50" relative="1" as="geometry">
            <mxPoint x="19.447368421052715" y="-790" as="sourcePoint" />
            <mxPoint x="165" y="-790" as="targetPoint" />
          </mxGeometry>
        </mxCell>
        <mxCell id="pYfZoYJUQG9xa3Inid7K-24" value="" style="endArrow=classic;html=1;rounded=0;" parent="1" target="pYfZoYJUQG9xa3Inid7K-9" edge="1">
          <mxGeometry width="50" height="50" relative="1" as="geometry">
            <mxPoint x="174.99736842105273" y="-760" as="sourcePoint" />
            <mxPoint x="320.55" y="-760" as="targetPoint" />
          </mxGeometry>
        </mxCell>
        <mxCell id="pYfZoYJUQG9xa3Inid7K-25" value="" style="endArrow=classic;html=1;rounded=0;" parent="1" edge="1">
          <mxGeometry width="50" height="50" relative="1" as="geometry">
            <mxPoint x="354.9973684210527" y="-720" as="sourcePoint" />
            <mxPoint x="525" y="-720" as="targetPoint" />
          </mxGeometry>
        </mxCell>
        <mxCell id="pYfZoYJUQG9xa3Inid7K-26" value="" style="endArrow=classic;html=1;rounded=0;" parent="1" edge="1">
          <mxGeometry width="50" height="50" relative="1" as="geometry">
            <mxPoint x="714.9973684210527" y="-671.05" as="sourcePoint" />
            <mxPoint x="885" y="-671.05" as="targetPoint" />
          </mxGeometry>
        </mxCell>
        <mxCell id="pYfZoYJUQG9xa3Inid7K-27" value="Teacher" style="text;html=1;strokeColor=none;fillColor=none;align=center;verticalAlign=middle;whiteSpace=wrap;rounded=0;" parent="1" vertex="1">
          <mxGeometry x="-10" y="-880" width="60" height="30" as="geometry" />
        </mxCell>
        <mxCell id="pYfZoYJUQG9xa3Inid7K-28" value="1. Click button &quot;Kiểm Duyệt Đề Tài&quot;" style="text;html=1;strokeColor=none;fillColor=none;align=center;verticalAlign=middle;whiteSpace=wrap;rounded=0;" parent="1" vertex="1">
          <mxGeometry x="30" y="-820" width="130" height="30" as="geometry" />
        </mxCell>
        <mxCell id="pYfZoYJUQG9xa3Inid7K-29" value="2. getAllTeamByTeacherId()" style="text;html=1;strokeColor=none;fillColor=none;align=center;verticalAlign=middle;whiteSpace=wrap;rounded=0;" parent="1" vertex="1">
          <mxGeometry x="182.5" y="-790" width="150" height="30" as="geometry" />
        </mxCell>
        <mxCell id="pYfZoYJUQG9xa3Inid7K-30" value="6. executeQuery()" style="text;html=1;strokeColor=none;fillColor=none;align=center;verticalAlign=middle;whiteSpace=wrap;rounded=0;" parent="1" vertex="1">
          <mxGeometry x="740" y="-700" width="130" height="30" as="geometry" />
        </mxCell>
        <mxCell id="pYfZoYJUQG9xa3Inid7K-31" value="" style="verticalLabelPosition=bottom;verticalAlign=top;html=1;shape=card;whiteSpace=wrap;size=20;arcSize=12;rotation=-180;" parent="1" vertex="1">
          <mxGeometry x="-90" y="-700" width="100" height="30" as="geometry" />
        </mxCell>
        <mxCell id="pYfZoYJUQG9xa3Inid7K-32" value="&lt;font style=&quot;font-size: 11px;&quot;&gt;alt findAll team&lt;/font&gt;" style="text;html=1;strokeColor=none;fillColor=none;align=center;verticalAlign=middle;whiteSpace=wrap;rounded=0;" parent="1" vertex="1">
          <mxGeometry x="-97.5" y="-700" width="115" height="30" as="geometry" />
        </mxCell>
        <mxCell id="pYfZoYJUQG9xa3Inid7K-33" value="" style="endArrow=classic;html=1;rounded=0;" parent="1" edge="1">
          <mxGeometry width="50" height="50" relative="1" as="geometry">
            <mxPoint x="534.9973684210527" y="-710" as="sourcePoint" />
            <mxPoint x="705" y="-710" as="targetPoint" />
          </mxGeometry>
        </mxCell>
        <mxCell id="pYfZoYJUQG9xa3Inid7K-34" value="" style="html=1;verticalAlign=bottom;endArrow=open;dashed=1;endSize=8;curved=0;rounded=0;" parent="1" edge="1">
          <mxGeometry relative="1" as="geometry">
            <mxPoint x="885" y="-630" as="sourcePoint" />
            <mxPoint x="715" y="-630" as="targetPoint" />
          </mxGeometry>
        </mxCell>
        <mxCell id="pYfZoYJUQG9xa3Inid7K-35" value="7. Return null" style="text;html=1;strokeColor=none;fillColor=none;align=center;verticalAlign=middle;whiteSpace=wrap;rounded=0;" parent="1" vertex="1">
          <mxGeometry x="740" y="-660" width="130" height="30" as="geometry" />
        </mxCell>
        <mxCell id="pYfZoYJUQG9xa3Inid7K-36" value="" style="html=1;verticalAlign=bottom;endArrow=open;dashed=1;endSize=8;curved=0;rounded=0;" parent="1" edge="1">
          <mxGeometry relative="1" as="geometry">
            <mxPoint x="705" y="-440" as="sourcePoint" />
            <mxPoint x="535" y="-440" as="targetPoint" />
          </mxGeometry>
        </mxCell>
        <mxCell id="pYfZoYJUQG9xa3Inid7K-37" value="13. Return result" style="text;html=1;strokeColor=none;fillColor=none;align=center;verticalAlign=middle;whiteSpace=wrap;rounded=0;" parent="1" vertex="1">
          <mxGeometry x="552.5" y="-470" width="130" height="30" as="geometry" />
        </mxCell>
        <mxCell id="pYfZoYJUQG9xa3Inid7K-38" value="" style="html=1;verticalAlign=bottom;endArrow=open;dashed=1;endSize=8;curved=0;rounded=0;" parent="1" edge="1">
          <mxGeometry relative="1" as="geometry">
            <mxPoint x="527.5" y="-420" as="sourcePoint" />
            <mxPoint x="357.5" y="-420" as="targetPoint" />
          </mxGeometry>
        </mxCell>
        <mxCell id="pYfZoYJUQG9xa3Inid7K-39" value="14. Return result" style="text;html=1;strokeColor=none;fillColor=none;align=center;verticalAlign=middle;whiteSpace=wrap;rounded=0;" parent="1" vertex="1">
          <mxGeometry x="372.5" y="-450" width="130" height="30" as="geometry" />
        </mxCell>
        <mxCell id="pYfZoYJUQG9xa3Inid7K-40" value="" style="html=1;verticalAlign=bottom;endArrow=open;dashed=1;endSize=8;curved=0;rounded=0;" parent="1" edge="1">
          <mxGeometry relative="1" as="geometry">
            <mxPoint x="345" y="-380" as="sourcePoint" />
            <mxPoint x="175" y="-380" as="targetPoint" />
          </mxGeometry>
        </mxCell>
        <mxCell id="pYfZoYJUQG9xa3Inid7K-41" value="15. Return view" style="text;html=1;strokeColor=none;fillColor=none;align=center;verticalAlign=middle;whiteSpace=wrap;rounded=0;" parent="1" vertex="1">
          <mxGeometry x="192.5" y="-410" width="130" height="30" as="geometry" />
        </mxCell>
        <mxCell id="pYfZoYJUQG9xa3Inid7K-42" value="" style="html=1;verticalAlign=bottom;endArrow=open;dashed=1;endSize=8;curved=0;rounded=0;" parent="1" edge="1">
          <mxGeometry relative="1" as="geometry">
            <mxPoint x="165" y="-350" as="sourcePoint" />
            <mxPoint x="20" y="-350" as="targetPoint" />
          </mxGeometry>
        </mxCell>
        <mxCell id="pYfZoYJUQG9xa3Inid7K-43" value="16. Return view" style="text;html=1;strokeColor=none;fillColor=none;align=center;verticalAlign=middle;whiteSpace=wrap;rounded=0;" parent="1" vertex="1">
          <mxGeometry x="27.5" y="-380" width="130" height="30" as="geometry" />
        </mxCell>
        <mxCell id="pYfZoYJUQG9xa3Inid7K-44" value="3. getAllTeamByTeacherId()" style="text;html=1;strokeColor=none;fillColor=none;align=center;verticalAlign=middle;whiteSpace=wrap;rounded=0;" parent="1" vertex="1">
          <mxGeometry x="362.5" y="-750" width="150" height="30" as="geometry" />
        </mxCell>
        <mxCell id="pYfZoYJUQG9xa3Inid7K-45" value="4. findAllTeamByTeacherId()" style="text;html=1;strokeColor=none;fillColor=none;align=center;verticalAlign=middle;whiteSpace=wrap;rounded=0;" parent="1" vertex="1">
          <mxGeometry x="547.5" y="-750" width="157.5" height="30" as="geometry" />
        </mxCell>
        <mxCell id="pYfZoYJUQG9xa3Inid7K-46" value="8. Return null" style="text;html=1;strokeColor=none;fillColor=none;align=center;verticalAlign=middle;whiteSpace=wrap;rounded=0;" parent="1" vertex="1">
          <mxGeometry x="552.5" y="-640" width="130" height="30" as="geometry" />
        </mxCell>
        <mxCell id="pYfZoYJUQG9xa3Inid7K-47" value="" style="html=1;verticalAlign=bottom;endArrow=open;dashed=1;endSize=8;curved=0;rounded=0;" parent="1" edge="1">
          <mxGeometry relative="1" as="geometry">
            <mxPoint x="705" y="-610" as="sourcePoint" />
            <mxPoint x="535" y="-610" as="targetPoint" />
          </mxGeometry>
        </mxCell>
        <mxCell id="pYfZoYJUQG9xa3Inid7K-48" value="9. Return null" style="text;html=1;strokeColor=none;fillColor=none;align=center;verticalAlign=middle;whiteSpace=wrap;rounded=0;" parent="1" vertex="1">
          <mxGeometry x="367.5" y="-630" width="130" height="30" as="geometry" />
        </mxCell>
        <mxCell id="pYfZoYJUQG9xa3Inid7K-49" value="" style="html=1;verticalAlign=bottom;endArrow=open;dashed=1;endSize=8;curved=0;rounded=0;" parent="1" edge="1">
          <mxGeometry relative="1" as="geometry">
            <mxPoint x="525" y="-600" as="sourcePoint" />
            <mxPoint x="355" y="-600" as="targetPoint" />
          </mxGeometry>
        </mxCell>
        <mxCell id="pYfZoYJUQG9xa3Inid7K-50" value="" style="html=1;verticalAlign=bottom;endArrow=open;dashed=1;endSize=8;curved=0;rounded=0;" parent="1" edge="1">
          <mxGeometry relative="1" as="geometry">
            <mxPoint x="342.5" y="-590" as="sourcePoint" />
            <mxPoint x="172.5" y="-590" as="targetPoint" />
          </mxGeometry>
        </mxCell>
        <mxCell id="pYfZoYJUQG9xa3Inid7K-51" value="10. Return not found" style="text;html=1;strokeColor=none;fillColor=none;align=center;verticalAlign=middle;whiteSpace=wrap;rounded=0;" parent="1" vertex="1">
          <mxGeometry x="192.5" y="-620" width="130" height="30" as="geometry" />
        </mxCell>
        <mxCell id="pYfZoYJUQG9xa3Inid7K-52" value="" style="html=1;verticalAlign=bottom;endArrow=open;dashed=1;endSize=8;curved=0;rounded=0;" parent="1" edge="1">
          <mxGeometry relative="1" as="geometry">
            <mxPoint x="165" y="-580" as="sourcePoint" />
            <mxPoint x="20" y="-580" as="targetPoint" />
          </mxGeometry>
        </mxCell>
        <mxCell id="pYfZoYJUQG9xa3Inid7K-53" value="11. Return message not found" style="text;html=1;strokeColor=none;fillColor=none;align=center;verticalAlign=middle;whiteSpace=wrap;rounded=0;" parent="1" vertex="1">
          <mxGeometry x="27.5" y="-610" width="130" height="30" as="geometry" />
        </mxCell>
        <mxCell id="pYfZoYJUQG9xa3Inid7K-54" value="12. Return result" style="text;html=1;strokeColor=none;fillColor=none;align=center;verticalAlign=middle;whiteSpace=wrap;rounded=0;" parent="1" vertex="1">
          <mxGeometry x="732.5" y="-490" width="130" height="30" as="geometry" />
        </mxCell>
        <mxCell id="pYfZoYJUQG9xa3Inid7K-55" value="" style="html=1;verticalAlign=bottom;endArrow=open;dashed=1;endSize=8;curved=0;rounded=0;" parent="1" edge="1">
          <mxGeometry relative="1" as="geometry">
            <mxPoint x="885" y="-460" as="sourcePoint" />
            <mxPoint x="715" y="-460" as="targetPoint" />
          </mxGeometry>
        </mxCell>
        <mxCell id="pYfZoYJUQG9xa3Inid7K-56" value="" style="endArrow=none;dashed=1;html=1;dashPattern=1 3;strokeWidth=2;rounded=0;exitX=-0.001;exitY=0.342;exitDx=0;exitDy=0;exitPerimeter=0;entryX=1.003;entryY=0.334;entryDx=0;entryDy=0;entryPerimeter=0;" parent="1" edge="1">
          <mxGeometry width="50" height="50" relative="1" as="geometry">
            <mxPoint x="-90" y="-517" as="sourcePoint" />
            <mxPoint x="965" y="-520" as="targetPoint" />
          </mxGeometry>
        </mxCell>
        <mxCell id="pYfZoYJUQG9xa3Inid7K-57" value="[Invalid info]" style="text;html=1;strokeColor=none;fillColor=none;align=center;verticalAlign=middle;whiteSpace=wrap;rounded=0;" parent="1" vertex="1">
          <mxGeometry x="-80" y="-610" width="90" height="30" as="geometry" />
        </mxCell>
        <mxCell id="pYfZoYJUQG9xa3Inid7K-58" value="[Invalid info]" style="text;html=1;strokeColor=none;fillColor=none;align=center;verticalAlign=middle;whiteSpace=wrap;rounded=0;" parent="1" vertex="1">
          <mxGeometry x="-80" y="-440" width="90" height="30" as="geometry" />
        </mxCell>
      </root>
    </mxGraphModel>
  </diagram>
  <diagram id="rrSV6P2CxBI4FBwH3pbO" name="setDateOfStages">
    <mxGraphModel grid="1" page="1" gridSize="10" guides="1" tooltips="1" connect="1" arrows="1" fold="1" pageScale="1" pageWidth="827" pageHeight="1169" math="0" shadow="0">
      <root>
        <mxCell id="0" />
        <mxCell id="1" parent="0" />
        <mxCell id="ptLNc4BylwGsXR8h8LEa-1" value="" style="shape=umlFrame;whiteSpace=wrap;html=1;pointerEvents=0;width=60;height=30;" vertex="1" parent="1">
          <mxGeometry x="-72.5" y="1430" width="1050" height="380" as="geometry" />
        </mxCell>
        <mxCell id="ptLNc4BylwGsXR8h8LEa-2" value="" style="html=1;points=[[0,0,0,0,5],[0,1,0,0,-5],[1,0,0,0,5],[1,1,0,0,-5]];perimeter=orthogonalPerimeter;outlineConnect=0;targetShapes=umlLifeline;portConstraint=eastwest;newEdgeStyle={&quot;curved&quot;:0,&quot;rounded&quot;:0};" vertex="1" parent="1">
          <mxGeometry x="182.5" y="1270" width="10" height="590" as="geometry" />
        </mxCell>
        <mxCell id="ptLNc4BylwGsXR8h8LEa-3" value="" style="shape=umlLifeline;perimeter=lifelinePerimeter;whiteSpace=wrap;html=1;container=1;dropTarget=0;collapsible=0;recursiveResize=0;outlineConnect=0;portConstraint=eastwest;newEdgeStyle={&quot;curved&quot;:0,&quot;rounded&quot;:0};participant=umlActor;" vertex="1" parent="1">
          <mxGeometry x="27.5" y="1210" width="20" height="710" as="geometry" />
        </mxCell>
        <mxCell id="ptLNc4BylwGsXR8h8LEa-4" value="View" style="html=1;whiteSpace=wrap;" vertex="1" parent="1">
          <mxGeometry x="137.5" y="1200" width="100" height="40" as="geometry" />
        </mxCell>
        <mxCell id="ptLNc4BylwGsXR8h8LEa-5" value="AcceptProjectController" style="html=1;whiteSpace=wrap;" vertex="1" parent="1">
          <mxGeometry x="298.75" y="1200" width="137.5" height="40" as="geometry" />
        </mxCell>
        <mxCell id="ptLNc4BylwGsXR8h8LEa-6" value="AcceptProjectService" style="html=1;whiteSpace=wrap;" vertex="1" parent="1">
          <mxGeometry x="488.75" y="1200" width="117.5" height="40" as="geometry" />
        </mxCell>
        <mxCell id="ptLNc4BylwGsXR8h8LEa-7" value="AcceptProjectRepository" style="html=1;whiteSpace=wrap;" vertex="1" parent="1">
          <mxGeometry x="656.25" y="1200" width="142.5" height="40" as="geometry" />
        </mxCell>
        <mxCell id="ptLNc4BylwGsXR8h8LEa-8" value="Database" style="html=1;whiteSpace=wrap;" vertex="1" parent="1">
          <mxGeometry x="857.5" y="1200" width="100" height="40" as="geometry" />
        </mxCell>
        <mxCell id="ptLNc4BylwGsXR8h8LEa-9" value="" style="html=1;points=[[0,0,0,0,5],[0,1,0,0,-5],[1,0,0,0,5],[1,1,0,0,-5]];perimeter=orthogonalPerimeter;outlineConnect=0;targetShapes=umlLifeline;portConstraint=eastwest;newEdgeStyle={&quot;curved&quot;:0,&quot;rounded&quot;:0};" vertex="1" parent="1">
          <mxGeometry x="362.5" y="1360" width="10" height="410" as="geometry" />
        </mxCell>
        <mxCell id="ptLNc4BylwGsXR8h8LEa-10" value="" style="html=1;points=[[0,0,0,0,5],[0,1,0,0,-5],[1,0,0,0,5],[1,1,0,0,-5]];perimeter=orthogonalPerimeter;outlineConnect=0;targetShapes=umlLifeline;portConstraint=eastwest;newEdgeStyle={&quot;curved&quot;:0,&quot;rounded&quot;:0};" vertex="1" parent="1">
          <mxGeometry x="542.5" y="1400" width="10" height="370" as="geometry" />
        </mxCell>
        <mxCell id="ptLNc4BylwGsXR8h8LEa-11" value="" style="html=1;points=[[0,0,0,0,5],[0,1,0,0,-5],[1,0,0,0,5],[1,1,0,0,-5]];perimeter=orthogonalPerimeter;outlineConnect=0;targetShapes=umlLifeline;portConstraint=eastwest;newEdgeStyle={&quot;curved&quot;:0,&quot;rounded&quot;:0};" vertex="1" parent="1">
          <mxGeometry x="722.5" y="1610" width="10" height="120" as="geometry" />
        </mxCell>
        <mxCell id="ptLNc4BylwGsXR8h8LEa-12" value="" style="html=1;points=[[0,0,0,0,5],[0,1,0,0,-5],[1,0,0,0,5],[1,1,0,0,-5]];perimeter=orthogonalPerimeter;outlineConnect=0;targetShapes=umlLifeline;portConstraint=eastwest;newEdgeStyle={&quot;curved&quot;:0,&quot;rounded&quot;:0};" vertex="1" parent="1">
          <mxGeometry x="902.5" y="1650" width="10" height="80" as="geometry" />
        </mxCell>
        <mxCell id="ptLNc4BylwGsXR8h8LEa-13" value="" style="endArrow=none;dashed=1;html=1;dashPattern=1 3;strokeWidth=2;rounded=0;" edge="1" parent="1" source="ptLNc4BylwGsXR8h8LEa-2">
          <mxGeometry width="50" height="50" relative="1" as="geometry">
            <mxPoint x="257.5" y="1600" as="sourcePoint" />
            <mxPoint x="187.5" y="1920" as="targetPoint" />
          </mxGeometry>
        </mxCell>
        <mxCell id="ptLNc4BylwGsXR8h8LEa-14" value="" style="endArrow=none;dashed=1;html=1;rounded=0;" edge="1" parent="1">
          <mxGeometry width="50" height="50" relative="1" as="geometry">
            <mxPoint x="367.5" y="1920" as="sourcePoint" />
            <mxPoint x="367.5" y="1770" as="targetPoint" />
          </mxGeometry>
        </mxCell>
        <mxCell id="ptLNc4BylwGsXR8h8LEa-15" value="" style="endArrow=none;dashed=1;html=1;rounded=0;" edge="1" parent="1">
          <mxGeometry width="50" height="50" relative="1" as="geometry">
            <mxPoint x="547.26" y="1920" as="sourcePoint" />
            <mxPoint x="547.26" y="1770" as="targetPoint" />
          </mxGeometry>
        </mxCell>
        <mxCell id="ptLNc4BylwGsXR8h8LEa-16" value="" style="endArrow=none;dashed=1;html=1;rounded=0;" edge="1" parent="1">
          <mxGeometry width="50" height="50" relative="1" as="geometry">
            <mxPoint x="727.5" y="1920" as="sourcePoint" />
            <mxPoint x="727.26" y="1730" as="targetPoint" />
          </mxGeometry>
        </mxCell>
        <mxCell id="ptLNc4BylwGsXR8h8LEa-17" value="" style="endArrow=none;dashed=1;html=1;rounded=0;" edge="1" parent="1">
          <mxGeometry width="50" height="50" relative="1" as="geometry">
            <mxPoint x="907.5" y="1920" as="sourcePoint" />
            <mxPoint x="907.26" y="1730" as="targetPoint" />
          </mxGeometry>
        </mxCell>
        <mxCell id="ptLNc4BylwGsXR8h8LEa-18" value="" style="endArrow=none;dashed=1;html=1;rounded=0;entryX=0.5;entryY=1;entryDx=0;entryDy=0;" edge="1" parent="1" target="ptLNc4BylwGsXR8h8LEa-8">
          <mxGeometry width="50" height="50" relative="1" as="geometry">
            <mxPoint x="906.97" y="1650" as="sourcePoint" />
            <mxPoint x="906.73" y="1460" as="targetPoint" />
          </mxGeometry>
        </mxCell>
        <mxCell id="ptLNc4BylwGsXR8h8LEa-19" value="" style="endArrow=none;dashed=1;html=1;rounded=0;entryX=0.5;entryY=1;entryDx=0;entryDy=0;" edge="1" parent="1">
          <mxGeometry width="50" height="50" relative="1" as="geometry">
            <mxPoint x="727.5" y="1610" as="sourcePoint" />
            <mxPoint x="727.26" y="1240" as="targetPoint" />
          </mxGeometry>
        </mxCell>
        <mxCell id="ptLNc4BylwGsXR8h8LEa-20" value="" style="endArrow=none;dashed=1;html=1;rounded=0;" edge="1" parent="1">
          <mxGeometry width="50" height="50" relative="1" as="geometry">
            <mxPoint x="547.5" y="1400" as="sourcePoint" />
            <mxPoint x="547.5" y="1240" as="targetPoint" />
          </mxGeometry>
        </mxCell>
        <mxCell id="ptLNc4BylwGsXR8h8LEa-21" value="" style="endArrow=none;dashed=1;html=1;rounded=0;" edge="1" parent="1">
          <mxGeometry width="50" height="50" relative="1" as="geometry">
            <mxPoint x="367.5" y="1360" as="sourcePoint" />
            <mxPoint x="367.07" y="1240" as="targetPoint" />
          </mxGeometry>
        </mxCell>
        <mxCell id="ptLNc4BylwGsXR8h8LEa-22" value="" style="endArrow=none;dashed=1;html=1;rounded=0;" edge="1" parent="1">
          <mxGeometry width="50" height="50" relative="1" as="geometry">
            <mxPoint x="187.5" y="1270" as="sourcePoint" />
            <mxPoint x="187.07" y="1240" as="targetPoint" />
          </mxGeometry>
        </mxCell>
        <mxCell id="ptLNc4BylwGsXR8h8LEa-23" value="" style="endArrow=classic;html=1;rounded=0;" edge="1" parent="1">
          <mxGeometry width="50" height="50" relative="1" as="geometry">
            <mxPoint x="36.947368421052715" y="1300" as="sourcePoint" />
            <mxPoint x="182.5" y="1300" as="targetPoint" />
          </mxGeometry>
        </mxCell>
        <mxCell id="ptLNc4BylwGsXR8h8LEa-24" value="" style="endArrow=classic;html=1;rounded=0;" edge="1" parent="1">
          <mxGeometry width="50" height="50" relative="1" as="geometry">
            <mxPoint x="36.947368421052715" y="1340" as="sourcePoint" />
            <mxPoint x="182.5" y="1340" as="targetPoint" />
          </mxGeometry>
        </mxCell>
        <mxCell id="ptLNc4BylwGsXR8h8LEa-25" value="" style="endArrow=classic;html=1;rounded=0;" edge="1" parent="1" target="ptLNc4BylwGsXR8h8LEa-9">
          <mxGeometry width="50" height="50" relative="1" as="geometry">
            <mxPoint x="192.49736842105273" y="1370" as="sourcePoint" />
            <mxPoint x="338.05" y="1370" as="targetPoint" />
          </mxGeometry>
        </mxCell>
        <mxCell id="ptLNc4BylwGsXR8h8LEa-26" value="" style="endArrow=classic;html=1;rounded=0;" edge="1" parent="1">
          <mxGeometry width="50" height="50" relative="1" as="geometry">
            <mxPoint x="372.4973684210527" y="1410" as="sourcePoint" />
            <mxPoint x="542.5" y="1410" as="targetPoint" />
          </mxGeometry>
        </mxCell>
        <mxCell id="ptLNc4BylwGsXR8h8LEa-27" value="&lt;font style=&quot;font-size: 12px;&quot;&gt;5.1 return in valid view&lt;/font&gt;" style="html=1;verticalAlign=bottom;endArrow=open;dashed=1;endSize=8;curved=0;rounded=0;" edge="1" parent="1">
          <mxGeometry relative="1" as="geometry">
            <mxPoint x="542.5" y="1490" as="sourcePoint" />
            <mxPoint x="372.5" y="1490" as="targetPoint" />
          </mxGeometry>
        </mxCell>
        <mxCell id="ptLNc4BylwGsXR8h8LEa-28" value="" style="endArrow=none;dashed=1;html=1;dashPattern=1 3;strokeWidth=2;rounded=0;exitX=-0.001;exitY=0.342;exitDx=0;exitDy=0;exitPerimeter=0;entryX=1.003;entryY=0.334;entryDx=0;entryDy=0;entryPerimeter=0;" edge="1" parent="1" source="ptLNc4BylwGsXR8h8LEa-1" target="ptLNc4BylwGsXR8h8LEa-1">
          <mxGeometry width="50" height="50" relative="1" as="geometry">
            <mxPoint x="367.5" y="1530" as="sourcePoint" />
            <mxPoint x="417.5" y="1480" as="targetPoint" />
          </mxGeometry>
        </mxCell>
        <mxCell id="ptLNc4BylwGsXR8h8LEa-29" value="&lt;font style=&quot;font-size: 12px;&quot;&gt;5.2 return in valid view&lt;/font&gt;" style="html=1;verticalAlign=bottom;endArrow=open;dashed=1;endSize=8;curved=0;rounded=0;" edge="1" parent="1">
          <mxGeometry relative="1" as="geometry">
            <mxPoint x="362.5" y="1520" as="sourcePoint" />
            <mxPoint x="192.5" y="1520" as="targetPoint" />
          </mxGeometry>
        </mxCell>
        <mxCell id="ptLNc4BylwGsXR8h8LEa-30" value="[Invalid info]" style="text;html=1;strokeColor=none;fillColor=none;align=center;verticalAlign=middle;whiteSpace=wrap;rounded=0;" vertex="1" parent="1">
          <mxGeometry x="-62.5" y="1490" width="90" height="30" as="geometry" />
        </mxCell>
        <mxCell id="ptLNc4BylwGsXR8h8LEa-31" value="[valid info]" style="text;html=1;strokeColor=none;fillColor=none;align=center;verticalAlign=middle;whiteSpace=wrap;rounded=0;" vertex="1" parent="1">
          <mxGeometry x="-62.5" y="1655" width="90" height="30" as="geometry" />
        </mxCell>
        <mxCell id="ptLNc4BylwGsXR8h8LEa-32" value="" style="endArrow=classic;html=1;rounded=0;" edge="1" parent="1">
          <mxGeometry width="50" height="50" relative="1" as="geometry">
            <mxPoint x="552.4973684210527" y="1619.47" as="sourcePoint" />
            <mxPoint x="722.5" y="1619.47" as="targetPoint" />
          </mxGeometry>
        </mxCell>
        <mxCell id="ptLNc4BylwGsXR8h8LEa-33" value="" style="endArrow=classic;html=1;rounded=0;" edge="1" parent="1">
          <mxGeometry width="50" height="50" relative="1" as="geometry">
            <mxPoint x="732.4973684210527" y="1660" as="sourcePoint" />
            <mxPoint x="902.5" y="1660" as="targetPoint" />
          </mxGeometry>
        </mxCell>
        <mxCell id="ptLNc4BylwGsXR8h8LEa-34" value="" style="html=1;verticalAlign=bottom;endArrow=open;dashed=1;endSize=8;curved=0;rounded=0;" edge="1" parent="1">
          <mxGeometry relative="1" as="geometry">
            <mxPoint x="902.5" y="1700" as="sourcePoint" />
            <mxPoint x="732.5" y="1700" as="targetPoint" />
          </mxGeometry>
        </mxCell>
        <mxCell id="ptLNc4BylwGsXR8h8LEa-35" value="" style="html=1;verticalAlign=bottom;endArrow=open;dashed=1;endSize=8;curved=0;rounded=0;" edge="1" parent="1">
          <mxGeometry relative="1" as="geometry">
            <mxPoint x="722.5" y="1720" as="sourcePoint" />
            <mxPoint x="552.5" y="1720" as="targetPoint" />
          </mxGeometry>
        </mxCell>
        <mxCell id="ptLNc4BylwGsXR8h8LEa-36" value="" style="html=1;verticalAlign=bottom;endArrow=open;dashed=1;endSize=8;curved=0;rounded=0;" edge="1" parent="1">
          <mxGeometry relative="1" as="geometry">
            <mxPoint x="542.5" y="1740" as="sourcePoint" />
            <mxPoint x="372.5" y="1740" as="targetPoint" />
          </mxGeometry>
        </mxCell>
        <mxCell id="ptLNc4BylwGsXR8h8LEa-37" value="" style="html=1;verticalAlign=bottom;endArrow=open;dashed=1;endSize=8;curved=0;rounded=0;" edge="1" parent="1">
          <mxGeometry relative="1" as="geometry">
            <mxPoint x="362.5" y="1760" as="sourcePoint" />
            <mxPoint x="192.5" y="1760" as="targetPoint" />
          </mxGeometry>
        </mxCell>
        <mxCell id="ptLNc4BylwGsXR8h8LEa-38" value="" style="html=1;verticalAlign=bottom;endArrow=open;dashed=1;endSize=8;curved=0;rounded=0;" edge="1" parent="1">
          <mxGeometry relative="1" as="geometry">
            <mxPoint x="182.5" y="1790" as="sourcePoint" />
            <mxPoint x="42.5" y="1790" as="targetPoint" />
          </mxGeometry>
        </mxCell>
        <mxCell id="ptLNc4BylwGsXR8h8LEa-39" value="Teacher" style="text;html=1;strokeColor=none;fillColor=none;align=center;verticalAlign=middle;whiteSpace=wrap;rounded=0;" vertex="1" parent="1">
          <mxGeometry x="7.5" y="1250" width="60" height="30" as="geometry" />
        </mxCell>
        <mxCell id="ptLNc4BylwGsXR8h8LEa-40" value="1. Enter dates for each stages" style="text;html=1;strokeColor=none;fillColor=none;align=center;verticalAlign=middle;whiteSpace=wrap;rounded=0;" vertex="1" parent="1">
          <mxGeometry x="47.5" y="1270" width="130" height="30" as="geometry" />
        </mxCell>
        <mxCell id="ptLNc4BylwGsXR8h8LEa-41" value="2. Click button &quot;Lưu&quot;" style="text;html=1;strokeColor=none;fillColor=none;align=center;verticalAlign=middle;whiteSpace=wrap;rounded=0;" vertex="1" parent="1">
          <mxGeometry x="47.5" y="1310" width="130" height="30" as="geometry" />
        </mxCell>
        <mxCell id="ptLNc4BylwGsXR8h8LEa-42" value="3. setDateOfStages()" style="text;html=1;strokeColor=none;fillColor=none;align=center;verticalAlign=middle;whiteSpace=wrap;rounded=0;" vertex="1" parent="1">
          <mxGeometry x="217.5" y="1340" width="130" height="30" as="geometry" />
        </mxCell>
        <mxCell id="ptLNc4BylwGsXR8h8LEa-43" value="7. executeUpdate()" style="text;html=1;strokeColor=none;fillColor=none;align=center;verticalAlign=middle;whiteSpace=wrap;rounded=0;" vertex="1" parent="1">
          <mxGeometry x="747.5" y="1630" width="130" height="30" as="geometry" />
        </mxCell>
        <mxCell id="ptLNc4BylwGsXR8h8LEa-44" value="8. Return result" style="text;html=1;strokeColor=none;fillColor=none;align=center;verticalAlign=middle;whiteSpace=wrap;rounded=0;" vertex="1" parent="1">
          <mxGeometry x="747.5" y="1670" width="130" height="30" as="geometry" />
        </mxCell>
        <mxCell id="ptLNc4BylwGsXR8h8LEa-45" value="9. Return result" style="text;html=1;strokeColor=none;fillColor=none;align=center;verticalAlign=middle;whiteSpace=wrap;rounded=0;" vertex="1" parent="1">
          <mxGeometry x="577.5" y="1690" width="130" height="30" as="geometry" />
        </mxCell>
        <mxCell id="ptLNc4BylwGsXR8h8LEa-46" value="10. Return result" style="text;html=1;strokeColor=none;fillColor=none;align=center;verticalAlign=middle;whiteSpace=wrap;rounded=0;" vertex="1" parent="1">
          <mxGeometry x="397.5" y="1710" width="130" height="30" as="geometry" />
        </mxCell>
        <mxCell id="ptLNc4BylwGsXR8h8LEa-47" value="11. Return valid view" style="text;html=1;strokeColor=none;fillColor=none;align=center;verticalAlign=middle;whiteSpace=wrap;rounded=0;" vertex="1" parent="1">
          <mxGeometry x="217.5" y="1730" width="130" height="30" as="geometry" />
        </mxCell>
        <mxCell id="ptLNc4BylwGsXR8h8LEa-48" value="12. Return valid view" style="text;html=1;strokeColor=none;fillColor=none;align=center;verticalAlign=middle;whiteSpace=wrap;rounded=0;" vertex="1" parent="1">
          <mxGeometry x="52.5" y="1750" width="130" height="30" as="geometry" />
        </mxCell>
        <mxCell id="ptLNc4BylwGsXR8h8LEa-49" value="" style="verticalLabelPosition=bottom;verticalAlign=top;html=1;shape=card;whiteSpace=wrap;size=20;arcSize=12;rotation=-180;" vertex="1" parent="1">
          <mxGeometry x="-72.5" y="1430" width="100" height="30" as="geometry" />
        </mxCell>
        <mxCell id="ptLNc4BylwGsXR8h8LEa-50" value="&lt;font style=&quot;font-size: 11px;&quot;&gt;alt validate dates of stages&lt;/font&gt;" style="text;html=1;strokeColor=none;fillColor=none;align=center;verticalAlign=middle;whiteSpace=wrap;rounded=0;" vertex="1" parent="1">
          <mxGeometry x="-80" y="1430" width="115" height="30" as="geometry" />
        </mxCell>
        <mxCell id="ptLNc4BylwGsXR8h8LEa-51" value="4. setDateOfStages()" style="text;html=1;strokeColor=none;fillColor=none;align=center;verticalAlign=middle;whiteSpace=wrap;rounded=0;" vertex="1" parent="1">
          <mxGeometry x="387.5" y="1380" width="130" height="30" as="geometry" />
        </mxCell>
        <mxCell id="ptLNc4BylwGsXR8h8LEa-52" value="6. setDateOfStages()" style="text;html=1;strokeColor=none;fillColor=none;align=center;verticalAlign=middle;whiteSpace=wrap;rounded=0;" vertex="1" parent="1">
          <mxGeometry x="577.5" y="1590" width="130" height="30" as="geometry" />
        </mxCell>
      </root>
    </mxGraphModel>
  </diagram>
</mxfile>
